<?xml version="1.0" encoding="utf-8"?>
<svg viewBox="0 0 960 960" xmlns="http://www.w3.org/2000/svg">
  <rect x="195.337" y="379.004" width="565.398" height="44.054" rx="5" ry="5" style="fill: rgb(216, 216, 216); stroke: rgb(0, 0, 0); stroke-width: 10px;" transform="matrix(1, 0, 0, 0.9999999999999999, 0, 0)"/>
  <g transform="matrix(3.211776971817016, 0, 0, 3.2760839462280273, -4.711676120757602, -15.617914199829102)" style="">
    <path style="fill-opacity: 0.9; fill: none; stroke: rgb(0, 0, 0); stroke-width: 12.330721px;" d="M 1.467 122.127 L 76.192 122.127 L 150.917 122.127 L 225.642 122.127 L 300.367 122.127 L 300.184 143.49 L 300 164.853 L 299.817 186.216 L 299.633 207.579 L 298.625 212.622 L 297.616 217.665 L 296.607 222.708 L 295.599 227.751 L 294.04 232.336 L 292.481 236.92 L 290.922 241.504 L 289.364 246.088 L 287.347 249.664 L 285.33 253.24 L 283.313 256.816 L 281.296 260.391 L 279.187 262.684 L 277.078 264.976 L 274.97 267.268 L 272.861 269.56 L 270.294 271.669 L 267.727 273.778 L 265.16 275.886 L 262.592 277.995 C 262.592 277.995 261.469 278.499 259.784 279.261 C 258.099 280.023 255.853 281.043 253.606 282.075 C 251.36 283.106 249.114 284.149 247.429 284.957 C 245.744 285.765 244.621 286.338 244.621 286.43 C 244.621 286.521 243.612 286.934 242.1 287.501 C 240.587 288.069 238.569 288.79 236.552 289.501 C 234.535 290.212 232.518 290.911 231.005 291.432 C 229.492 291.954 228.484 292.298 228.484 292.298 L 224.633 292.848 L 220.782 293.398 L 216.931 293.949 L 213.081 294.499 L 206.479 295.049 L 199.878 295.599 L 193.276 296.149 L 186.675 296.699 C 186.675 296.699 182.847 296.768 177.099 296.871 C 171.352 296.974 163.684 297.112 156.006 297.25 C 148.327 297.388 140.636 297.525 134.843 297.628 C 129.049 297.731 125.152 297.8 125.061 297.8 C 124.969 297.8 123.548 297.686 121.468 297.514 C 119.388 297.342 116.648 297.113 113.921 296.883 C 111.193 296.654 108.477 296.425 106.442 296.253 C 104.408 296.081 103.056 295.966 103.056 295.966 L 96.638 294.958 L 90.22 293.949 L 83.802 292.941 L 77.384 291.932 L 71.424 290.282 L 65.465 288.631 L 59.505 286.981 L 53.545 285.33 L 49.786 283.405 L 46.027 281.479 L 42.268 279.554 L 38.509 277.628 L 35.666 275.336 L 32.824 273.044 L 29.981 270.752 L 27.139 268.46 L 25.214 265.526 L 23.289 262.592 L 21.363 259.658 L 19.438 256.724 L 17.604 253.974 L 15.771 251.223 L 13.937 248.472 L 12.103 245.721 L 11.186 242.604 L 10.269 239.487 L 9.352 236.37 L 8.435 233.252 L 7.151 228.301 L 5.868 223.35 L 4.584 218.399 L 3.301 213.447 L 3.117 210.789 L 2.934 208.13 L 2.75 205.471 L 2.567 202.812 L 2.292 182.641 L 2.017 162.47 L 1.742 142.299 Z"/>
  </g>
  <rect x="195.337" y="217.873" width="565.398" height="44.054" rx="5" ry="5" style="fill: rgb(216, 216, 216); stroke: rgb(0, 0, 0); stroke-width: 10px;" transform="matrix(1, 0, 0, 0.9999999999999999, 0, 0)"/>
  <path style="stroke: rgb(0, 0, 0); fill: none; stroke-width: 40px;" d="M 14.135 259.522 L 248.54 260.124 L 482.945 260.724 L 717.35 261.323 L 951.755 261.926 L 949.989 250.512 L 948.222 239.098 L 946.456 227.685 L 944.686 216.267 L 940.566 205.453 L 936.442 194.639 L 932.321 183.824 L 928.197 173.013 L 924.076 164.905 L 919.952 156.793 L 915.829 148.685 L 911.705 140.574 L 905.814 133.664 L 899.924 126.755 L 894.033 119.849 L 888.146 112.94 L 882.844 106.931 L 877.544 100.923 L 872.245 94.918 L 866.945 88.91 L 860.759 84.104 L 854.577 79.298 L 848.391 74.492 L 842.208 69.686 L 837.789 66.681 L 833.373 63.677 L 828.956 60.676 L 824.54 57.672 C 824.54 57.672 821.226 56.247 816.257 54.088 C 811.288 51.929 804.662 49.036 798.037 46.108 C 791.411 43.179 784.785 40.214 779.816 37.904 C 774.844 35.595 771.533 33.94 771.533 33.642 C 771.533 33.341 766.747 31.916 759.569 29.943 C 752.391 27.971 742.82 25.455 733.249 22.978 C 723.678 20.498 714.11 18.058 706.931 16.24 C 699.753 14.418 694.967 13.216 694.967 13.216 L 675.828 10.51 L 656.686 7.807 L 637.547 5.104 L 618.405 2.401 L 556.566 1.799 L 494.723 1.199 L 432.883 0.6 L 371.044 0 L 358.087 0.901 L 345.128 1.802 L 332.172 2.703 L 319.215 3.604 L 306.554 4.505 L 293.89 5.406 L 281.23 6.306 L 268.566 7.207 C 268.566 7.207 265.473 7.807 260.816 8.708 C 256.162 9.609 249.94 10.811 243.681 12.013 C 237.424 13.212 231.129 14.415 226.324 15.316 C 221.519 16.217 218.208 16.819 217.913 16.819 C 217.617 16.819 214.158 17.796 209.135 19.26 C 204.108 20.725 197.521 22.677 190.969 24.63 C 184.417 26.582 177.904 28.535 173.025 29.999 C 168.149 31.464 164.909 32.44 164.909 32.44 C 164.909 32.44 162.554 33.94 159.018 36.175 C 155.485 38.409 150.774 41.377 146.062 44.306 C 141.35 47.231 136.639 50.124 133.106 52.208 C 129.573 54.291 127.215 55.569 127.215 55.268 C 127.215 54.966 125.375 56.244 122.613 58.327 C 119.854 60.411 116.173 63.301 112.489 66.229 C 108.809 69.158 105.128 72.123 102.369 74.357 C 99.607 76.592 97.766 78.095 97.766 78.095 L 91.288 83.802 L 84.81 89.512 L 78.332 95.219 L 71.854 100.926 L 67.142 108.737 L 62.431 116.547 L 57.719 124.354 L 53.007 132.164 C 53.007 132.164 51.828 134.192 50.081 137.232 C 48.334 140.275 46.015 144.328 43.732 148.384 C 41.448 152.439 39.203 156.495 37.6 159.535 C 36.001 162.576 35.044 164.604 35.336 164.604 C 35.631 164.604 35.188 166.858 34.36 170.235 C 33.531 173.616 32.317 178.121 31.064 182.629 C 29.815 187.133 28.527 191.638 27.551 195.019 C 26.574 198.396 25.913 200.65 25.913 200.65 C 25.913 200.65 25.251 202.678 24.275 205.718 C 23.301 208.762 22.014 212.814 20.761 216.87 C 19.508 220.926 18.294 224.982 17.466 228.022 C 16.637 231.062 16.197 233.09 16.489 233.09 C 16.785 233.09 16.711 234.591 16.451 236.884 C 16.194 239.174 15.754 242.25 15.311 245.405 C 14.871 248.56 14.427 251.79 14.17 254.378 C 13.913 256.97 13.84 258.922 14.135 259.522 Z" transform="matrix(1, 0, 0, 0.9999999999999999, 0, 0)"/>
  <rect x="442.503" y="521.248" width="65.963" height="74.492" style="stroke: rgb(0, 0, 0); fill: none; stroke-width: 10px;" transform="matrix(1, 0, 0, 0.9999999999999999, 0, 0)"/>
  <polygon style="stroke: rgb(0, 0, 0); fill: rgb(255, 255, 255); stroke-width: 10px;" points="506.203 521.248 457.529 541.275 456.396 622.642 508.466 597.609" transform="matrix(1, 0, 0, 0.9999999999999999, 0, 0)"/>
  <line style="fill: rgb(216, 216, 216); stroke: rgb(0, 0, 0); stroke-width: 10px;" x1="473.285" y1="566.998" x2="473.285" y2="580.214" transform="matrix(1, 0, 0, 0.9999999999999999, 0, 0)"/>
</svg>