<?xml version="1.0" encoding="utf-8"?>
<svg viewBox="0 0 298.9 293.0327" xmlns="http://www.w3.org/2000/svg">
  <rect x="60.819" y="115.688" width="176.039" height="13.447" rx="5" ry="5" style="fill: rgb(216, 216, 216); stroke: rgb(0, 0, 0); stroke-width: 1px;"/>
  <g transform="matrix(1, 0, 0, 1, -1.4670000076293945, -4.767250061035156)">
    <path style="fill-opacity: 0.9; fill: none; stroke-width: 5px; stroke: rgb(0, 0, 0);" d="M 1.467 122.127 L 76.192 122.127 L 150.917 122.127 L 225.642 122.127 L 300.367 122.127 L 300.184 143.49 L 300 164.853 L 299.817 186.216 L 299.633 207.579 L 298.625 212.622 L 297.616 217.665 L 296.607 222.708 L 295.599 227.751 L 294.04 232.336 L 292.481 236.92 L 290.922 241.504 L 289.364 246.088 L 287.347 249.664 L 285.33 253.24 L 283.313 256.816 L 281.296 260.391 L 279.187 262.684 L 277.078 264.976 L 274.97 267.268 L 272.861 269.56 L 270.294 271.669 L 267.727 273.778 L 265.16 275.886 L 262.592 277.995 C 262.592 277.995 261.469 278.499 259.784 279.261 C 258.099 280.023 255.853 281.043 253.606 282.075 C 251.36 283.106 249.114 284.149 247.429 284.957 C 245.744 285.765 244.621 286.338 244.621 286.43 C 244.621 286.521 243.612 286.934 242.1 287.501 C 240.587 288.069 238.569 288.79 236.552 289.501 C 234.535 290.212 232.518 290.911 231.005 291.432 C 229.492 291.954 228.484 292.298 228.484 292.298 L 224.633 292.848 L 220.782 293.398 L 216.931 293.949 L 213.081 294.499 L 206.479 295.049 L 199.878 295.599 L 193.276 296.149 L 186.675 296.699 C 186.675 296.699 182.847 296.768 177.099 296.871 C 171.352 296.974 163.684 297.112 156.006 297.25 C 148.327 297.388 140.636 297.525 134.843 297.628 C 129.049 297.731 125.152 297.8 125.061 297.8 C 124.969 297.8 123.548 297.686 121.468 297.514 C 119.388 297.342 116.648 297.113 113.921 296.883 C 111.193 296.654 108.477 296.425 106.442 296.253 C 104.408 296.081 103.056 295.966 103.056 295.966 L 96.638 294.958 L 90.22 293.949 L 83.802 292.941 L 77.384 291.932 L 71.424 290.282 L 65.465 288.631 L 59.505 286.981 L 53.545 285.33 L 49.786 283.405 L 46.027 281.479 L 42.268 279.554 L 38.509 277.628 L 35.666 275.336 L 32.824 273.044 L 29.981 270.752 L 27.139 268.46 L 25.214 265.526 L 23.289 262.592 L 21.363 259.658 L 19.438 256.724 L 17.604 253.974 L 15.771 251.223 L 13.937 248.472 L 12.103 245.721 L 11.186 242.604 L 10.269 239.487 L 9.352 236.37 L 8.435 233.252 L 7.151 228.301 L 5.868 223.35 L 4.584 218.399 L 3.301 213.447 L 3.117 210.789 L 2.934 208.13 L 2.75 205.471 L 2.567 202.812 L 2.292 182.641 L 2.017 162.47 L 1.742 142.299 Z"/>
  </g>
  <rect x="60.819" y="66.504" width="176.039" height="13.447" rx="5" ry="5" style="fill: rgb(216, 216, 216); stroke: rgb(0, 0, 0); stroke-width: 1px;"/>
  <path style="stroke: rgb(0, 0, 0); fill: none; stroke-width: 4px;" d="M 4.401 79.217 L 77.384 79.401 L 150.367 79.584 L 223.35 79.767 L 296.333 79.951 L 295.783 76.467 L 295.233 72.983 L 294.683 69.499 L 294.132 66.014 L 292.849 62.713 L 291.565 59.412 L 290.282 56.111 L 288.998 52.811 L 287.715 50.336 L 286.431 47.86 L 285.147 45.385 L 283.863 42.909 L 282.029 40.8 L 280.195 38.691 L 278.361 36.583 L 276.528 34.474 L 274.877 32.64 L 273.227 30.806 L 271.577 28.973 L 269.927 27.139 L 268.001 25.672 L 266.076 24.205 L 264.15 22.738 L 262.225 21.271 L 260.849 20.354 L 259.474 19.437 L 258.099 18.521 L 256.724 17.604 C 256.724 17.604 255.692 17.169 254.145 16.51 C 252.598 15.851 250.535 14.968 248.472 14.074 C 246.409 13.18 244.346 12.275 242.799 11.57 C 241.251 10.865 240.22 10.36 240.22 10.269 C 240.22 10.177 238.73 9.742 236.495 9.14 C 234.26 8.538 231.28 7.77 228.3 7.014 C 225.32 6.257 222.341 5.512 220.106 4.957 C 217.871 4.401 216.381 4.034 216.381 4.034 L 210.422 3.208 L 204.462 2.383 L 198.503 1.558 L 192.543 0.733 L 173.289 0.549 L 154.034 0.366 L 134.78 0.183 L 115.526 0 L 111.492 0.275 L 107.457 0.55 L 103.423 0.825 L 99.389 1.1 L 95.447 1.375 L 91.504 1.65 L 87.562 1.925 L 83.619 2.2 C 83.619 2.2 82.656 2.383 81.206 2.658 C 79.757 2.933 77.82 3.3 75.871 3.667 C 73.923 4.033 71.963 4.4 70.467 4.675 C 68.971 4.95 67.94 5.134 67.848 5.134 C 67.756 5.134 66.679 5.432 65.115 5.879 C 63.55 6.326 61.499 6.922 59.459 7.518 C 57.419 8.114 55.391 8.71 53.872 9.157 C 52.354 9.604 51.345 9.902 51.345 9.902 C 51.345 9.902 50.612 10.36 49.511 11.042 C 48.411 11.724 46.944 12.63 45.477 13.524 C 44.01 14.417 42.543 15.3 41.443 15.936 C 40.343 16.572 39.609 16.962 39.609 16.87 C 39.609 16.778 39.036 17.168 38.176 17.804 C 37.317 18.44 36.171 19.322 35.024 20.216 C 33.878 21.11 32.732 22.015 31.873 22.697 C 31.013 23.379 30.44 23.838 30.44 23.838 L 28.423 25.58 L 26.406 27.323 L 24.389 29.065 L 22.372 30.807 L 20.905 33.191 L 19.438 35.575 L 17.971 37.958 L 16.504 40.342 C 16.504 40.342 16.137 40.961 15.593 41.889 C 15.049 42.818 14.327 44.055 13.616 45.293 C 12.905 46.531 12.206 47.769 11.707 48.697 C 11.209 49.625 10.911 50.244 11.002 50.244 C 11.094 50.244 10.956 50.932 10.698 51.963 C 10.44 52.995 10.062 54.37 9.672 55.746 C 9.283 57.121 8.882 58.496 8.578 59.528 C 8.274 60.559 8.068 61.247 8.068 61.247 C 8.068 61.247 7.862 61.866 7.558 62.794 C 7.255 63.723 6.854 64.96 6.464 66.198 C 6.074 67.436 5.696 68.674 5.438 69.602 C 5.18 70.53 5.043 71.149 5.134 71.149 C 5.226 71.149 5.203 71.607 5.122 72.307 C 5.042 73.006 4.905 73.945 4.767 74.908 C 4.63 75.871 4.492 76.857 4.412 77.647 C 4.332 78.438 4.309 79.034 4.401 79.217 Z"/>
  <rect x="137.775" y="159.107" width="20.538" height="22.738" style="stroke: rgb(0, 0, 0); fill: none; stroke-width: 2px;"/>
  <polygon style="stroke: rgb(0, 0, 0); stroke-width: 2px; fill: rgb(255, 255, 255);" points="157.93 158.741 141.817 164.826 141.442 189.548 158.679 181.942"/>
  <line style="fill: rgb(216, 216, 216); stroke: rgb(0, 0, 0);" x1="145.11" y1="173.411" x2="145.11" y2="177.445"/>
</svg>