<?xml version="1.0" encoding="utf-8"?>
<svg version="1.1" id="Layer_1" x="0px" y="0px" width="100%" viewBox="0 0 960 960" enable-background="new 0 0 400 400" xmlns="http://www.w3.org/2000/svg">
  <defs/>
  <path opacity="1.000000" d="M 879.632 446.778 C 880.868 447.615 882.107 448.452 884.442 450.195 C 902.364 465.854 915.921 482.745 921.014 505.191 C 921.121 510.997 921.229 516.8 920.404 524.148 C 918.314 529.878 918.241 534.877 915.815 538.114 C 905.074 552.458 893.662 566.293 882.492 580.311 C 882.082 580.44 881.671 580.569 879.813 580.979 C 834.965 613.236 784.757 626.504 732.553 634.21 C 720.902 635.93 709.19 637.236 697.507 638.733 C 677.946 638.839 658.383 638.949 637.097 638.058 C 618.698 635.316 601.882 634.407 585.368 631.674 C 532.983 622.993 483.797 606.495 442.934 570.643 C 441.042 568.986 437.498 568.074 434.965 568.447 C 402.736 573.165 370.676 580.946 338.323 582.387 C 302.313 583.993 266.011 580.473 229.908 578.119 C 193.271 575.734 157.751 567.134 123.654 553.705 C 76.639 535.187 34.386 511.058 21.16 456.603 C 21.052 449.19 20.944 441.779 21.779 432.786 C 27.99 405.05 42.629 385.285 63.258 368.816 C 112.151 329.776 169.402 311.642 229.685 300.868 C 245.937 297.964 262.388 296.162 278.745 293.853 C 308.855 293.743 338.965 293.638 370.791 294.524 C 405.288 296.76 437.313 302.746 468.27 313.208 C 517.774 329.942 562.966 352.911 587.222 403.346 C 588.244 405.477 591.977 407.781 594.244 407.588 C 608.1 406.412 621.879 403.337 635.719 403.128 C 674.662 402.545 713.901 400.14 752.5 403.869 C 797.557 408.224 841.099 421.1 879.632 446.778 M 532.186 504.521 C 537.436 469.414 542.686 434.307 548.058 398.382 C 526.645 398.382 506.55 398.382 486.122 398.382 C 477.124 422.347 468.251 445.991 459.375 469.632 C 458.7 469.313 458.025 468.995 457.35 468.673 C 456.255 445.775 455.159 422.877 454.022 399.088 C 434.883 399.088 417.094 399.453 399.333 398.921 C 391.357 398.68 389.046 401.788 388.139 409.257 C 385.648 429.739 382.216 450.109 379.27 470.539 C 376.594 489.113 374.065 507.709 371.442 526.494 C 385.322 526.494 397.699 526.494 410.709 526.494 C 414.748 500.143 418.704 474.338 422.66 448.531 C 423.209 448.599 423.759 448.667 424.308 448.738 C 425.433 474.034 426.558 499.327 427.751 526.196 C 439.474 526.196 450.727 525.861 461.948 526.323 C 468.64 526.602 471.973 524.577 474.138 517.815 C 479.932 499.723 486.654 481.93 493.12 464.059 C 494.044 461.511 495.591 459.188 496.847 456.76 C 497.587 457.056 498.323 457.351 499.062 457.646 C 495.956 479.117 492.853 500.588 489.614 522.987 C 503.379 522.987 515.768 522.987 529.235 522.987 C 530.133 517.618 531.047 512.124 532.186 504.521 M 767.301 444.406 C 763.83 465.404 760.354 486.402 756.879 507.402 C 756.044 507.296 755.205 507.193 754.366 507.087 C 750.468 486.554 746.573 466.018 742.645 445.318 C 723.086 445.318 704.583 445.318 685.347 445.318 C 678.616 487.011 671.958 528.249 665.119 570.603 C 676.678 570.603 685.966 570.287 695.222 570.709 C 701.946 571.013 704.154 568.381 705.049 561.776 C 707.876 540.966 711.522 520.269 714.851 499.529 C 715.371 499.573 715.891 499.618 716.409 499.665 C 720.813 522.559 725.217 545.45 729.565 568.055 C 749.196 568.055 767.634 568.055 786.541 568.055 C 792.572 525.795 798.489 484.32 804.447 442.555 C 791.7 442.555 780.086 442.555 767.301 444.406 M 314.107 405.425 C 308.848 405.425 303.469 406.131 298.35 405.28 C 287.632 403.501 282.898 408.47 278.766 417.891 C 263.681 452.281 247.65 486.254 231.989 520.388 C 230.372 523.916 228.828 527.478 226.634 532.407 C 239.025 532.407 249.56 531.786 259.981 532.604 C 268.336 533.26 272.243 530.284 274.845 522.477 C 276.235 518.3 280.453 512.628 284.049 512.101 C 293.853 510.664 304.003 511.609 314.374 511.609 C 315.314 518.192 316.09 523.618 316.842 528.903 C 333.124 528.903 348.356 528.903 364.817 528.903 C 358.603 487.475 352.517 446.907 346.294 405.425 C 335.806 405.425 326.161 405.425 314.107 405.425 M 229.514 497.483 C 232.542 470.886 226.915 462.8 200.768 456.174 C 195.274 454.78 189.638 453.781 184.348 451.834 C 180.085 450.263 176.25 447.535 172.1 445.25 C 180.439 433.109 183.959 432.706 193.685 440.645 C 195.907 442.456 199.247 443.556 202.153 443.745 C 209.424 444.221 216.741 444.043 224.039 444.024 C 237.3 443.991 241.024 439.074 235.097 426.992 C 232.289 421.271 226.892 414.777 221.255 412.918 C 209.588 409.072 196.842 405.758 184.774 406.44 C 161.878 407.734 140.803 414.683 130.153 438.315 C 122.032 456.341 127.749 480.69 151.561 484.564 C 161.442 486.172 171.106 489.673 180.521 493.231 C 183.148 494.223 186.263 498.631 186.035 501.195 C 185.801 503.855 182.222 507.109 179.337 508.47 C 172.751 511.58 166.821 510.732 162.919 503.375 C 161.813 501.289 159.275 498.615 157.315 498.552 C 144.118 498.123 130.896 498.329 117.943 498.329 C 115.484 520.906 127.146 536.762 148.489 538.611 C 162.01 539.778 176.166 539.112 189.436 536.363 C 209.351 532.231 223.545 520.074 229.514 497.483 M 550.997 495.966 C 550.329 499.951 549.661 503.935 548.998 507.92 C 547.406 517.48 546.513 527.237 543.9 536.511 C 542.789 540.455 538.561 544.334 534.748 546.27 C 533.386 546.962 529.099 541.794 526.09 539.375 C 524.365 537.99 522.553 535.686 520.723 535.627 C 509.519 535.278 498.295 535.452 487.305 535.452 C 484.109 558.048 488.391 568.02 503.072 574.072 C 544.809 591.275 587.845 566.255 592.908 521.862 C 593.18 519.453 593.714 517.079 594.049 514.677 C 597.11 492.833 600.152 470.984 603.394 447.756 C 589.905 447.756 578.229 448.121 566.592 447.62 C 559.636 447.317 557.402 450.528 556.615 456.664 C 555.019 469.084 553.048 481.454 550.997 495.966 M 600.987 565.653 C 602.248 568.229 603.424 572.989 604.786 573.043 C 618.808 573.591 632.862 573.378 647.332 573.378 C 653.716 530.607 659.89 489.242 666.105 447.606 C 649.315 447.606 634.134 447.606 618.422 447.606 C 612.715 486.732 607.106 525.155 600.987 565.653 Z" style="paint-order: stroke markers; stroke-width: 0px; stroke: rgb(0, 0, 0);"/>
  <g>
    <path opacity="1.000000" stroke="none" d="M 532.076 505.576 C 531.047 512.124 530.133 517.618 529.235 522.987 C 515.768 522.987 503.379 522.987 489.614 522.987 C 492.853 500.588 495.956 479.117 499.062 457.646 C 498.323 457.351 497.587 457.056 496.847 456.76 C 495.591 459.188 494.044 461.511 493.12 464.059 C 486.654 481.93 479.932 499.723 474.138 517.815 C 471.973 524.577 468.64 526.602 461.948 526.323 C 450.727 525.861 439.474 526.196 427.751 526.196 C 426.558 499.327 425.433 474.034 424.308 448.738 C 423.759 448.667 423.209 448.599 422.66 448.531 C 418.704 474.338 414.748 500.143 410.709 526.494 C 397.699 526.494 385.322 526.494 371.442 526.494 C 374.065 507.709 376.594 489.113 379.27 470.539 C 382.216 450.109 385.648 429.739 388.139 409.257 C 389.046 401.788 391.357 398.68 399.333 398.921 C 417.094 399.453 434.883 399.088 454.022 399.088 C 455.159 422.877 456.255 445.775 457.35 468.673 C 458.025 468.995 458.7 469.313 459.375 469.632 C 468.251 445.991 477.124 422.347 486.122 398.382 C 506.55 398.382 526.645 398.382 548.058 398.382 C 542.686 434.307 537.436 469.414 532.076 505.576 M 497.78 452.923 C 498.319 453.104 498.858 453.282 499.394 453.46 C 499.38 452.509 499.366 451.555 499.35 450.603 C 498.877 450.861 498.405 451.114 497.78 452.923 Z" style="fill: rgb(248, 248, 248); fill-opacity: 0.5;"/>
    <path opacity="1.000000" stroke="none" d="M 767.887 443.481 C 780.086 442.555 791.7 442.555 804.447 442.555 C 798.489 484.32 792.572 525.795 786.541 568.055 C 767.634 568.055 749.196 568.055 729.565 568.055 C 725.217 545.45 720.813 522.559 716.409 499.665 C 715.891 499.618 715.371 499.573 714.851 499.529 C 711.522 520.269 707.876 540.966 705.049 561.776 C 704.154 568.381 701.946 571.013 695.222 570.709 C 685.966 570.287 676.678 570.603 665.119 570.603 C 671.958 528.249 678.616 487.011 685.347 445.318 C 704.583 445.318 723.086 445.318 742.645 445.318 C 746.573 466.018 750.468 486.554 754.366 507.087 C 755.205 507.193 756.044 507.296 756.879 507.402 C 760.354 486.402 763.83 465.404 767.887 443.481 Z" style="fill: rgb(248, 248, 248); fill-opacity: 0.5;"/>
    <path opacity="1.000000" stroke="none" d="M 315.312 405.425 C 326.161 405.425 335.806 405.425 346.294 405.425 C 352.517 446.907 358.603 487.475 364.817 528.903 C 348.356 528.903 333.124 528.903 316.842 528.903 C 316.09 523.618 315.314 518.192 314.374 511.609 C 304.003 511.609 293.853 510.664 284.049 512.101 C 280.453 512.628 276.235 518.3 274.845 522.477 C 272.243 530.284 268.336 533.26 259.981 532.604 C 249.56 531.786 239.025 532.407 226.634 532.407 C 228.828 527.478 230.372 523.916 231.989 520.388 C 247.65 486.254 263.681 452.281 278.766 417.891 C 282.898 408.47 287.632 403.501 298.35 405.28 C 303.469 406.131 308.848 405.425 315.312 405.425 M 310.896 445.041 C 310.566 443.073 310.235 441.104 309.457 436.48 C 302.686 452.281 297.078 465.369 291.162 479.176 C 298.491 479.176 304.263 479.176 310.899 479.176 C 310.899 467.907 310.899 457.494 310.896 445.041 Z" style="fill: rgb(248, 248, 248); fill-opacity: 0.5;"/>
    <path opacity="1.000000" stroke="none" d="M 229.191 498.448 C 223.545 520.074 209.351 532.231 189.436 536.363 C 176.166 539.112 162.01 539.778 148.489 538.611 C 127.146 536.762 115.484 520.906 117.943 498.329 C 130.896 498.329 144.118 498.123 157.315 498.552 C 159.275 498.615 161.813 501.289 162.919 503.375 C 166.821 510.732 172.751 511.58 179.337 508.47 C 182.222 507.109 185.801 503.855 186.035 501.195 C 186.263 498.631 183.148 494.223 180.521 493.231 C 171.106 489.673 161.442 486.172 151.561 484.564 C 127.749 480.69 122.032 456.341 130.153 438.315 C 140.803 414.683 161.878 407.734 184.774 406.44 C 196.842 405.758 209.588 409.072 221.255 412.918 C 226.892 414.777 232.289 421.271 235.097 426.992 C 241.024 439.074 237.3 443.991 224.039 444.024 C 216.741 444.043 209.424 444.221 202.153 443.745 C 199.247 443.556 195.907 442.456 193.685 440.645 C 183.959 432.706 180.439 433.109 172.1 445.25 C 176.25 447.535 180.085 450.263 184.348 451.834 C 189.638 453.781 195.274 454.78 200.768 456.174 C 226.915 462.8 232.542 470.886 229.191 498.448 Z" style="fill: rgb(248, 248, 248); fill-opacity: 0.5;"/>
    <path opacity="1.000000" stroke="none" d="M 551.114 494.905 C 553.048 481.454 555.019 469.084 556.615 456.664 C 557.402 450.528 559.636 447.317 566.592 447.62 C 578.229 448.121 589.905 447.756 603.394 447.756 C 600.152 470.984 597.11 492.833 594.049 514.677 C 593.714 517.079 593.18 519.453 592.908 521.862 C 587.845 566.255 544.809 591.275 503.072 574.072 C 488.391 568.02 484.109 558.048 487.305 535.452 C 498.295 535.452 509.519 535.278 520.723 535.627 C 522.553 535.686 524.365 537.99 526.09 539.375 C 529.099 541.794 533.386 546.962 534.748 546.27 C 538.561 544.334 542.789 540.455 543.9 536.511 C 546.513 527.237 547.406 517.48 548.998 507.92 C 549.661 503.935 550.329 499.951 551.114 494.905 Z" style="fill: rgb(248, 248, 248); fill-opacity: 0.5;"/>
    <path opacity="1.000000" stroke="none" d="M 601.244 564.617 C 607.106 525.155 612.715 486.732 618.422 447.606 C 634.134 447.606 649.315 447.606 666.105 447.606 C 659.89 489.242 653.716 530.607 647.332 573.378 C 632.862 573.378 618.808 573.591 604.786 573.043 C 603.424 572.989 602.248 568.229 601.244 564.617 Z" style="fill: rgb(248, 248, 248); fill-opacity: 0.5;"/>
  </g>
  <path fill="#1D90CF" opacity="1.000000" stroke="none" d="M 497.857 452.145 C 498.405 451.114 498.877 450.861 499.35 450.603 C 499.366 451.555 499.38 452.509 499.394 453.46 C 498.858 453.282 498.319 453.104 497.857 452.145 Z"/>
  <path opacity="1.000000" stroke="none" d="M 310.899 446.063 C 310.899 457.494 310.899 467.907 310.899 479.176 C 304.263 479.176 298.491 479.176 291.162 479.176 C 297.078 465.369 302.686 452.281 309.457 436.48 C 310.235 441.104 310.566 443.073 310.899 446.063 Z" style=""/>
</svg>